<?xml version="1.0" encoding="utf-8"?>
<!-- Generator: Adobe Illustrator 16.0.0, SVG Export Plug-In . SVG Version: 6.00 Build 0)  -->
<!DOCTYPE svg PUBLIC "-//W3C//DTD SVG 1.1//EN" "http://www.w3.org/Graphics/SVG/1.1/DTD/svg11.dtd">
<svg version="1.1" id="Layer_1" xmlns="http://www.w3.org/2000/svg" xmlns:xlink="http://www.w3.org/1999/xlink" x="0px" y="0px"
	 width="1000px" height="1000px" viewBox="0 0 1000 1000" enable-background="new 0 0 1000 1000" xml:space="preserve">
<g>
	<g>
		<path fill="#ED58A0" d="M224.888,445.557c0,0-1.34,124.122,51.564,185.706c53.024,61.729,121.808,148.552,230.98,145.023l0,0
			c109.176,3.526,179.532-83.296,232.557-145.023c52.905-61.584,51.563-185.32,51.563-185.32l0,0
			c39.191-89.581,35-237.298,35-237.298c2.801-44.79-41.99-16.824-41.99-16.824c-53.187,36.392-134.368,139.956-134.368,139.956
			l0.192-2.416c-145.565-64.385-285.531-0.004-285.531-0.004l-0.086,2.406c0,0-81.181-103.577-134.367-139.969
			c0,0-44.792-27.994-41.993,16.797C188.41,208.59,185.695,355.977,224.888,445.557L224.888,445.557z"/>
		<g>
			<g>
				
					<line fill="none" stroke="#8C6239" stroke-width="30" stroke-linecap="round" stroke-miterlimit="10" x1="346.611" y1="608.933" x2="120.433" y2="739.518"/>
				<g>
					<g>
						<g>
							<path fill="#E6E6E6" d="M203.25,689.901c0,0-52.628-26.798-93.995-16.53"/>
							<path fill="#E6E6E6" d="M203.024,690.348c0,0-0.396-0.047-1.138-0.136c-0.739-0.092-1.809-0.251-3.155-0.465
								c-2.692-0.435-6.453-1.161-10.854-2.18c-2.206-0.498-4.565-1.086-7.045-1.729c-2.484-0.63-5.073-1.345-7.715-2.195
								c-2.644-0.84-5.326-1.88-8.08-2.867c-2.748-1.015-5.579-1.921-8.442-2.719c-2.867-0.766-5.752-1.476-8.612-2.071
								c-2.862-0.578-5.687-1.154-8.44-1.569c-1.377-0.217-2.734-0.427-4.066-0.567c-1.333-0.164-2.639-0.319-3.913-0.422
								c-1.274-0.116-2.518-0.241-3.72-0.283c-1.202-0.048-2.372-0.154-3.489-0.142c-1.122-0.014-2.196-0.026-3.219-0.038
								c-1.023,0.029-1.994,0.058-2.906,0.084c-0.917,0.009-1.766,0.096-2.556,0.154c-0.792,0.056-1.521,0.106-2.178,0.152
								c-2.624,0.318-4.123,0.5-4.123,0.5l-0.241-0.971c0,0,1.468-0.461,4.036-1.268c1.304-0.322,2.886-0.792,4.734-1.152
								c0.926-0.183,1.912-0.378,2.95-0.583c1.048-0.157,2.15-0.321,3.299-0.494c1.153-0.188,2.358-0.262,3.609-0.4
								c1.251-0.146,2.545-0.214,3.88-0.292c1.336-0.104,2.707-0.132,4.11-0.146c1.406-0.041,2.838-0.018,4.297,0.013
								c2.919,0.048,5.934,0.208,8.983,0.511c3.051,0.29,6.136,0.692,9.215,1.157c3.071,0.491,6.157,0.951,9.182,1.488
								c3.034,0.506,5.989,1.15,8.788,1.979c2.79,0.852,5.424,1.869,7.855,2.989c2.444,1.087,4.697,2.251,6.735,3.404
								c4.082,2.298,7.275,4.618,9.419,6.381c1.069,0.895,1.887,1.624,2.428,2.155c0.545,0.521,0.82,0.827,0.82,0.827
								L203.024,690.348z"/>
						</g>
						<g>
							<path fill="#E6E6E6" d="M202.466,688.542c0,0-3.112,58.979-32.685,89.671"/>
							<path fill="#E6E6E6" d="M202.965,688.57c0,0,0.127,0.391,0.307,1.124c0.189,0.732,0.412,1.808,0.652,3.18
								c0.455,2.739,0.866,6.665,0.816,11.349c-0.021,2.343-0.139,4.875-0.419,7.535c-0.247,2.666-0.682,5.456-1.339,8.299
								c-0.681,2.837-1.602,5.72-2.68,8.601c-1.047,2.888-2.192,5.79-3.302,8.694c-1.137,2.898-2.331,5.772-3.605,8.561
								c-1.263,2.792-2.63,5.482-4.049,8.035c-0.704,1.277-1.399,2.529-2.138,3.728c-0.714,1.208-1.423,2.382-2.181,3.487
								c-0.736,1.116-1.442,2.203-2.193,3.214c-0.746,1.014-1.412,2.021-2.152,2.925c-0.724,0.91-1.417,1.782-2.077,2.611
								c-0.697,0.797-1.358,1.553-1.98,2.263c-1.236,1.421-2.434,2.557-3.365,3.524c-1.983,1.82-3.116,2.86-3.116,2.86l-0.72-0.692
								c0,0,0.907-1.208,2.494-3.321c0.369-0.546,0.777-1.151,1.222-1.81c0.446-0.655,0.946-1.347,1.412-2.138
								c0.479-0.775,0.989-1.604,1.526-2.475c0.5-0.892,1.027-1.829,1.577-2.807c0.57-0.96,1.062-2.027,1.621-3.093
								c0.565-1.062,1.079-2.201,1.615-3.363c0.549-1.153,1.067-2.362,1.591-3.6c0.544-1.225,1.041-2.504,1.542-3.805
								c1.018-2.593,1.931-5.327,2.861-8.095c0.913-2.776,1.741-5.63,2.512-8.495c0.741-2.878,1.372-5.783,1.868-8.671
								c0.521-2.879,0.961-5.723,1.556-8.432c0.584-2.714,1.261-5.312,1.957-7.779c0.685-2.469,1.355-4.807,2.027-6.966
								c1.319-4.32,2.57-7.941,3.54-10.489c0.489-1.272,0.885-2.278,1.175-2.966c0.294-0.687,0.452-1.053,0.452-1.053
								L202.965,688.57z"/>
						</g>
						<g>
							<path fill="#E6E6E6" d="M186.358,699.653c0,0-52.628-26.8-93.996-16.528"/>
							<path fill="#E6E6E6" d="M186.133,700.1c0,0-0.396-0.047-1.138-0.136c-0.739-0.092-1.809-0.251-3.155-0.465
								c-2.691-0.435-6.453-1.161-10.854-2.18c-2.205-0.499-4.565-1.087-7.044-1.729c-2.484-0.631-5.074-1.346-7.715-2.196
								c-2.644-0.839-5.325-1.88-8.08-2.867c-2.748-1.015-5.579-1.922-8.441-2.719c-2.868-0.765-5.752-1.475-8.613-2.071
								c-2.862-0.577-5.687-1.154-8.441-1.568c-1.376-0.218-2.733-0.427-4.066-0.567c-1.332-0.164-2.638-0.319-3.912-0.421
								c-1.274-0.117-2.518-0.242-3.72-0.284c-1.202-0.048-2.372-0.154-3.488-0.142c-1.122-0.013-2.197-0.025-3.219-0.037
								c-1.023,0.029-1.994,0.058-2.906,0.084c-0.917,0.009-1.766,0.097-2.556,0.155c-0.792,0.056-1.521,0.105-2.178,0.153
								c-2.624,0.317-4.123,0.5-4.123,0.5l-0.241-0.972c0,0,1.468-0.461,4.036-1.269c1.304-0.322,2.886-0.792,4.734-1.152
								c0.926-0.183,1.912-0.378,2.95-0.583c1.048-0.157,2.149-0.322,3.299-0.494c1.153-0.188,2.358-0.263,3.609-0.4
								c1.251-0.146,2.546-0.214,3.88-0.293c1.336-0.104,2.707-0.131,4.11-0.146c1.406-0.042,2.838-0.019,4.297,0.013
								c2.919,0.047,5.935,0.207,8.983,0.511c3.051,0.29,6.136,0.692,9.215,1.156c3.071,0.491,6.157,0.951,9.182,1.488
								c3.033,0.507,5.989,1.15,8.787,1.979c2.791,0.852,5.424,1.87,7.856,2.989c2.444,1.087,4.697,2.252,6.735,3.405
								c4.082,2.298,7.275,4.617,9.419,6.381c1.069,0.895,1.887,1.624,2.428,2.155c0.545,0.521,0.82,0.827,0.82,0.827L186.133,700.1
								z"/>
						</g>
						<g>
							<path fill="#E6E6E6" d="M185.575,698.294c0,0-3.111,58.978-32.683,89.666"/>
							<path fill="#E6E6E6" d="M186.074,698.322c0,0,0.127,0.391,0.307,1.124c0.189,0.732,0.413,1.808,0.652,3.18
								c0.455,2.739,0.866,6.664,0.816,11.348c-0.021,2.343-0.138,4.875-0.419,7.535c-0.246,2.666-0.681,5.456-1.339,8.298
								c-0.681,2.838-1.602,5.72-2.68,8.601c-1.047,2.888-2.193,5.79-3.303,8.694c-1.137,2.898-2.33,5.771-3.604,8.56
								c-1.263,2.792-2.63,5.482-4.049,8.034c-0.704,1.278-1.399,2.53-2.138,3.729c-0.714,1.207-1.423,2.381-2.181,3.486
								c-0.736,1.116-1.442,2.203-2.194,3.214c-0.746,1.014-1.412,2.021-2.152,2.925c-0.724,0.91-1.417,1.781-2.077,2.61
								c-0.697,0.797-1.359,1.553-1.98,2.264c-1.235,1.42-2.433,2.556-3.364,3.523c-1.983,1.82-3.116,2.86-3.116,2.86l-0.72-0.692
								c0,0,0.907-1.208,2.494-3.321c0.369-0.546,0.777-1.15,1.222-1.81c0.446-0.654,0.946-1.347,1.412-2.138
								c0.479-0.775,0.988-1.603,1.526-2.474c0.5-0.892,1.027-1.829,1.576-2.807c0.57-0.96,1.062-2.027,1.622-3.093
								c0.565-1.062,1.079-2.201,1.614-3.363c0.549-1.153,1.067-2.362,1.591-3.6c0.544-1.224,1.041-2.504,1.542-3.805
								c1.018-2.593,1.931-5.327,2.861-8.094c0.913-2.776,1.741-5.629,2.512-8.495c0.741-2.877,1.371-5.782,1.867-8.67
								c0.521-2.879,0.961-5.723,1.556-8.432c0.584-2.713,1.261-5.312,1.957-7.778c0.685-2.469,1.355-4.807,2.026-6.964
								c1.319-4.321,2.57-7.942,3.54-10.49c0.489-1.272,0.885-2.279,1.175-2.965c0.294-0.688,0.452-1.054,0.452-1.054
								L186.074,698.322z"/>
						</g>
						<g>
							<path fill="#E6E6E6" d="M169.467,709.407c0,0-52.628-26.8-93.995-16.53"/>
							<path fill="#E6E6E6" d="M169.242,709.854c0,0-0.396-0.047-1.138-0.136c-0.739-0.092-1.809-0.251-3.155-0.465
								c-2.692-0.434-6.453-1.161-10.854-2.18c-2.206-0.499-4.565-1.087-7.045-1.729c-2.483-0.631-5.073-1.346-7.715-2.195
								c-2.644-0.841-5.325-1.881-8.079-2.868c-2.748-1.015-5.58-1.921-8.442-2.719c-2.867-0.766-5.752-1.476-8.612-2.071
								c-2.862-0.578-5.687-1.154-8.441-1.569c-1.376-0.218-2.733-0.427-4.066-0.566c-1.332-0.164-2.638-0.32-3.912-0.423
								c-1.274-0.115-2.518-0.24-3.72-0.282c-1.202-0.049-2.372-0.155-3.489-0.143c-1.122-0.013-2.196-0.025-3.219-0.038
								c-1.023,0.03-1.994,0.06-2.906,0.085c-0.917,0.008-1.766,0.097-2.556,0.154c-0.792,0.056-1.521,0.107-2.178,0.153
								c-2.624,0.317-4.123,0.5-4.123,0.5l-0.241-0.972c0,0,1.468-0.461,4.036-1.268c1.304-0.322,2.886-0.792,4.734-1.152
								c0.926-0.184,1.912-0.378,2.95-0.584c1.048-0.156,2.149-0.32,3.299-0.493c1.153-0.188,2.358-0.263,3.609-0.401
								c1.251-0.146,2.546-0.213,3.88-0.293c1.336-0.104,2.707-0.13,4.11-0.146c1.406-0.042,2.838-0.018,4.297,0.014
								c2.919,0.046,5.934,0.208,8.983,0.51c3.051,0.29,6.136,0.692,9.215,1.158c3.071,0.49,6.157,0.949,9.182,1.487
								c3.034,0.508,5.989,1.15,8.788,1.979c2.79,0.852,5.424,1.87,7.855,2.99c2.444,1.087,4.697,2.252,6.735,3.404
								c4.081,2.298,7.274,4.617,9.419,6.381c1.068,0.895,1.887,1.624,2.427,2.155c0.545,0.521,0.82,0.827,0.82,0.827
								L169.242,709.854z"/>
						</g>
						<g>
							<path fill="#E6E6E6" d="M168.681,708.047c0,0-3.105,58.977-32.681,89.666"/>
							<path fill="#E6E6E6" d="M169.18,708.075c0,0,0.127,0.391,0.307,1.124c0.189,0.732,0.413,1.808,0.652,3.18
								c0.455,2.739,0.867,6.664,0.817,11.348c-0.021,2.343-0.138,4.875-0.419,7.535c-0.246,2.666-0.681,5.456-1.338,8.298
								c-0.681,2.839-1.602,5.721-2.68,8.601c-1.047,2.888-2.192,5.79-3.302,8.695c-1.137,2.897-2.33,5.771-3.604,8.56
								c-1.263,2.791-2.63,5.481-4.05,8.034c-0.703,1.277-1.398,2.529-2.138,3.728c-0.714,1.208-1.423,2.382-2.181,3.487
								c-0.736,1.115-1.442,2.202-2.193,3.214c-0.746,1.013-1.413,2.021-2.152,2.925c-0.724,0.909-1.417,1.781-2.077,2.61
								c-0.697,0.797-1.359,1.553-1.98,2.263c-1.236,1.42-2.434,2.557-3.365,3.523c-1.983,1.82-3.116,2.86-3.116,2.86l-0.72-0.692
								c0,0,0.907-1.208,2.494-3.32c0.369-0.547,0.777-1.15,1.222-1.811c0.446-0.654,0.946-1.347,1.412-2.137
								c0.479-0.776,0.988-1.604,1.526-2.475c0.5-0.892,1.027-1.828,1.577-2.807c0.57-0.96,1.062-2.026,1.621-3.092
								c0.565-1.062,1.079-2.201,1.615-3.363c0.549-1.153,1.067-2.363,1.591-3.6c0.544-1.225,1.041-2.504,1.542-3.805
								c1.018-2.593,1.931-5.327,2.861-8.095c0.913-2.775,1.74-5.629,2.511-8.494c0.741-2.878,1.371-5.783,1.867-8.67
								c0.521-2.879,0.961-5.722,1.556-8.431c0.584-2.713,1.26-5.313,1.956-7.779c0.684-2.468,1.354-4.806,2.026-6.965
								c1.319-4.321,2.569-7.942,3.539-10.49c0.489-1.271,0.885-2.278,1.175-2.964c0.294-0.688,0.452-1.054,0.452-1.054
								L169.18,708.075z"/>
						</g>
						<g>
							<path fill="#E6E6E6" d="M152.575,719.158c0,0-52.628-26.798-93.994-16.534"/>
							<path fill="#E6E6E6" d="M152.35,719.604c0,0-0.396-0.047-1.138-0.136c-0.739-0.092-1.809-0.251-3.155-0.465
								c-2.692-0.434-6.453-1.161-10.854-2.18c-2.206-0.498-4.565-1.087-7.044-1.729c-2.484-0.631-5.074-1.345-7.715-2.195
								c-2.644-0.84-5.326-1.881-8.08-2.868c-2.748-1.015-5.579-1.921-8.441-2.719c-2.867-0.766-5.752-1.476-8.612-2.072
								c-2.862-0.578-5.687-1.154-8.44-1.569c-1.376-0.218-2.733-0.427-4.066-0.567c-1.333-0.164-2.639-0.319-3.912-0.422
								c-1.274-0.116-2.518-0.241-3.72-0.283c-1.202-0.049-2.372-0.155-3.488-0.143c-1.122-0.014-2.196-0.025-3.219-0.038
								c-1.023,0.029-1.994,0.059-2.906,0.084c-0.917,0.008-1.766,0.097-2.556,0.154c-0.792,0.056-1.521,0.105-2.178,0.151
								c-2.624,0.318-4.123,0.5-4.123,0.5l-0.241-0.971c0,0,1.468-0.461,4.036-1.268c1.304-0.322,2.887-0.791,4.734-1.151
								c0.926-0.184,1.912-0.378,2.951-0.583c1.048-0.157,2.149-0.322,3.299-0.494c1.153-0.188,2.359-0.262,3.609-0.399
								c1.251-0.146,2.545-0.214,3.88-0.293c1.336-0.104,2.707-0.131,4.11-0.146c1.406-0.042,2.838-0.018,4.297,0.013
								c2.919,0.048,5.934,0.208,8.983,0.512c3.051,0.29,6.136,0.692,9.214,1.157c3.071,0.491,6.157,0.951,9.182,1.488
								c3.033,0.507,5.989,1.15,8.787,1.979c2.79,0.852,5.424,1.868,7.855,2.988c2.444,1.087,4.697,2.252,6.735,3.405
								c4.081,2.298,7.274,4.617,9.419,6.381c1.068,0.895,1.887,1.624,2.427,2.155c0.545,0.521,0.82,0.827,0.82,0.827
								L152.35,719.604z"/>
						</g>
						<g>
							<path fill="#E6E6E6" d="M151.791,717.798c0,0-3.108,58.979-32.682,89.668"/>
							<path fill="#E6E6E6" d="M152.29,717.826c0,0,0.127,0.391,0.307,1.124c0.189,0.732,0.413,1.808,0.652,3.18
								c0.455,2.739,0.867,6.665,0.816,11.349c-0.02,2.342-0.138,4.875-0.419,7.534c-0.246,2.666-0.681,5.456-1.338,8.3
								c-0.682,2.837-1.602,5.719-2.68,8.6c-1.047,2.888-2.192,5.79-3.302,8.695c-1.137,2.897-2.33,5.771-3.604,8.56
								c-1.263,2.791-2.63,5.482-4.049,8.034c-0.704,1.277-1.399,2.531-2.138,3.728c-0.714,1.208-1.423,2.382-2.181,3.487
								c-0.736,1.116-1.442,2.203-2.194,3.214c-0.746,1.014-1.412,2.021-2.152,2.925c-0.724,0.91-1.417,1.781-2.077,2.61
								c-0.697,0.797-1.358,1.553-1.98,2.264c-1.236,1.42-2.434,2.557-3.365,3.523c-1.983,1.821-3.116,2.86-3.116,2.86l-0.72-0.692
								c0,0,0.907-1.208,2.494-3.321c0.369-0.546,0.777-1.15,1.222-1.81c0.446-0.654,0.946-1.347,1.412-2.138
								c0.479-0.775,0.989-1.603,1.526-2.474c0.501-0.892,1.027-1.829,1.577-2.807c0.57-0.96,1.062-2.027,1.622-3.094
								c0.565-1.062,1.079-2.2,1.614-3.362c0.549-1.153,1.067-2.362,1.591-3.6c0.544-1.225,1.042-2.504,1.542-3.805
								c1.018-2.593,1.931-5.327,2.861-8.095c0.913-2.775,1.741-5.629,2.512-8.495c0.741-2.877,1.371-5.782,1.867-8.669
								c0.521-2.88,0.961-5.724,1.555-8.433c0.584-2.713,1.26-5.312,1.957-7.778c0.685-2.468,1.355-4.807,2.026-6.965
								c1.319-4.321,2.57-7.942,3.54-10.49c0.488-1.272,0.885-2.278,1.175-2.965c0.294-0.688,0.452-1.054,0.452-1.054
								L152.29,717.826z"/>
						</g>
						<g>
							<path fill="#E6E6E6" d="M135.684,728.91c0,0-52.628-26.797-93.994-16.529"/>
							<path fill="#E6E6E6" d="M135.458,729.356c0,0-0.396-0.048-1.138-0.137c-0.739-0.092-1.809-0.251-3.155-0.465
								c-2.692-0.434-6.453-1.161-10.854-2.179c-2.206-0.499-4.565-1.087-7.044-1.729c-2.484-0.63-5.074-1.345-7.715-2.194
								c-2.644-0.84-5.325-1.881-8.079-2.868c-2.748-1.015-5.579-1.92-8.442-2.718c-2.867-0.766-5.752-1.476-8.612-2.072
								c-2.862-0.577-5.687-1.154-8.44-1.568c-1.376-0.218-2.733-0.427-4.066-0.566c-1.333-0.164-2.639-0.32-3.912-0.423
								c-1.274-0.116-2.518-0.241-3.72-0.282c-1.202-0.049-2.372-0.156-3.488-0.143c-1.122-0.014-2.196-0.025-3.219-0.038
								c-1.023,0.029-1.994,0.059-2.906,0.084c-0.917,0.008-1.766,0.097-2.556,0.154c-0.792,0.056-1.521,0.106-2.178,0.153
								c-2.624,0.317-4.123,0.5-4.123,0.5l-0.241-0.972c0,0,1.468-0.461,4.036-1.268c1.304-0.322,2.886-0.792,4.734-1.152
								c0.926-0.183,1.912-0.378,2.95-0.583c1.048-0.156,2.149-0.322,3.299-0.494c1.153-0.188,2.358-0.262,3.609-0.4
								c1.251-0.146,2.546-0.213,3.88-0.293c1.336-0.104,2.707-0.13,4.11-0.146c1.406-0.041,2.838-0.018,4.297,0.014
								c2.919,0.047,5.934,0.207,8.983,0.511c3.051,0.29,6.136,0.692,9.215,1.158c3.071,0.49,6.157,0.949,9.182,1.486
								c3.033,0.507,5.989,1.15,8.787,1.979c2.79,0.852,5.424,1.87,7.856,2.99c2.444,1.087,4.696,2.25,6.734,3.403
								c4.082,2.298,7.275,4.618,9.419,6.381c1.069,0.895,1.887,1.624,2.428,2.155c0.545,0.521,0.82,0.827,0.82,0.827
								L135.458,729.356z"/>
						</g>
						<g>
							<path fill="#E6E6E6" d="M134.9,727.551c0,0-3.108,58.977-32.682,89.666"/>
							<path fill="#E6E6E6" d="M135.399,727.579c0,0,0.127,0.391,0.307,1.124c0.189,0.732,0.413,1.808,0.652,3.18
								c0.455,2.739,0.867,6.664,0.816,11.349c-0.021,2.342-0.138,4.875-0.419,7.534c-0.246,2.666-0.681,5.456-1.339,8.299
								c-0.681,2.838-1.602,5.719-2.68,8.6c-1.047,2.888-2.192,5.79-3.303,8.695c-1.137,2.897-2.33,5.771-3.604,8.559
								c-1.262,2.792-2.63,5.483-4.049,8.035c-0.703,1.277-1.399,2.53-2.138,3.728c-0.714,1.208-1.423,2.381-2.181,3.486
								c-0.736,1.116-1.442,2.203-2.193,3.214c-0.746,1.014-1.412,2.021-2.152,2.925c-0.724,0.91-1.417,1.781-2.077,2.61
								c-0.697,0.797-1.359,1.554-1.98,2.264c-1.236,1.42-2.434,2.557-3.365,3.523c-1.983,1.82-3.116,2.861-3.116,2.861l-0.72-0.693
								c0,0,0.907-1.208,2.494-3.321c0.369-0.546,0.777-1.149,1.222-1.81c0.446-0.654,0.946-1.347,1.412-2.138
								c0.479-0.775,0.988-1.603,1.526-2.474c0.5-0.892,1.027-1.829,1.577-2.807c0.57-0.96,1.062-2.027,1.621-3.092
								c0.565-1.062,1.079-2.201,1.614-3.363c0.549-1.154,1.067-2.363,1.591-3.6c0.544-1.225,1.042-2.505,1.542-3.806
								c1.018-2.592,1.931-5.326,2.861-8.094c0.913-2.775,1.741-5.629,2.512-8.495c0.741-2.877,1.371-5.782,1.867-8.669
								c0.521-2.879,0.961-5.722,1.556-8.433c0.584-2.713,1.26-5.312,1.957-7.778c0.684-2.467,1.355-4.806,2.026-6.964
								c1.319-4.321,2.57-7.942,3.54-10.49c0.488-1.272,0.885-2.278,1.175-2.964c0.294-0.688,0.452-1.054,0.452-1.054
								L135.399,727.579z"/>
						</g>
						<g>
							<path fill="#E6E6E6" d="M118.794,738.664c0,0-52.63-26.797-93.995-16.528"/>
							<path fill="#E6E6E6" d="M118.569,739.11c0,0-0.396-0.048-1.138-0.137c-0.739-0.092-1.809-0.251-3.155-0.465
								c-2.692-0.434-6.453-1.161-10.854-2.179c-2.206-0.499-4.565-1.087-7.045-1.729c-2.483-0.631-5.073-1.346-7.715-2.194
								c-2.644-0.841-5.326-1.881-8.08-2.868c-2.748-1.016-5.579-1.921-8.441-2.718c-2.868-0.767-5.752-1.477-8.613-2.072
								c-2.862-0.578-5.686-1.154-8.44-1.569c-1.376-0.217-2.733-0.427-4.066-0.566c-1.332-0.164-2.638-0.32-3.912-0.422
								c-1.274-0.116-2.518-0.241-3.72-0.283c-1.202-0.048-2.372-0.155-3.488-0.143c-1.122-0.013-2.196-0.024-3.219-0.037
								c-1.023,0.029-1.994,0.059-2.906,0.084c-0.917,0.009-1.766,0.097-2.556,0.154c-0.792,0.056-1.521,0.107-2.178,0.153
								c-2.624,0.317-4.123,0.5-4.123,0.5l-0.241-0.972c0,0,1.468-0.461,4.036-1.268c1.304-0.322,2.886-0.792,4.734-1.152
								c0.926-0.184,1.911-0.378,2.95-0.584c1.048-0.155,2.149-0.32,3.299-0.492c1.153-0.189,2.358-0.264,3.609-0.401
								c1.251-0.146,2.546-0.213,3.88-0.293c1.336-0.104,2.707-0.131,4.11-0.146c1.406-0.041,2.838-0.018,4.297,0.014
								c2.919,0.047,5.934,0.208,8.982,0.51c3.051,0.29,6.137,0.693,9.215,1.158c3.071,0.491,6.157,0.95,9.182,1.486
								c3.034,0.508,5.989,1.15,8.788,1.979c2.79,0.852,5.424,1.869,7.855,2.989c2.444,1.087,4.697,2.251,6.735,3.403
								c4.081,2.3,7.275,4.618,9.419,6.383c1.069,0.893,1.887,1.623,2.428,2.153c0.545,0.521,0.82,0.827,0.82,0.827L118.569,739.11z
								"/>
						</g>
						<g>
							<path fill="#E6E6E6" d="M118.01,737.302c0,0-3.11,58.978-32.682,89.667"/>
							<path fill="#E6E6E6" d="M118.509,737.33c0,0,0.127,0.391,0.307,1.124c0.189,0.733,0.413,1.808,0.652,3.18
								c0.455,2.739,0.867,6.664,0.816,11.349c-0.021,2.342-0.139,4.875-0.419,7.534c-0.246,2.666-0.681,5.456-1.339,8.299
								c-0.681,2.838-1.602,5.72-2.68,8.6c-1.047,2.888-2.193,5.79-3.303,8.695c-1.137,2.897-2.33,5.771-3.604,8.56
								c-1.262,2.791-2.63,5.482-4.049,8.034c-0.703,1.278-1.398,2.531-2.138,3.728c-0.714,1.208-1.423,2.383-2.181,3.487
								c-0.736,1.115-1.442,2.203-2.193,3.214c-0.746,1.014-1.412,2.021-2.152,2.925c-0.724,0.909-1.417,1.781-2.077,2.61
								c-0.697,0.797-1.359,1.553-1.98,2.264c-1.235,1.42-2.433,2.557-3.364,3.523c-1.983,1.821-3.116,2.861-3.116,2.861
								l-0.72-0.693c0,0,0.907-1.208,2.494-3.321c0.369-0.546,0.777-1.149,1.222-1.81c0.446-0.655,0.946-1.346,1.412-2.137
								c0.479-0.776,0.988-1.604,1.525-2.475c0.501-0.892,1.027-1.829,1.577-2.807c0.57-0.96,1.062-2.027,1.622-3.094
								c0.565-1.062,1.078-2.2,1.614-3.362c0.549-1.153,1.067-2.362,1.591-3.6c0.544-1.225,1.042-2.504,1.542-3.805
								c1.018-2.593,1.931-5.327,2.861-8.095c0.913-2.775,1.741-5.629,2.512-8.494c0.741-2.878,1.371-5.783,1.867-8.67
								c0.521-2.879,0.961-5.722,1.556-8.432c0.584-2.714,1.26-5.312,1.957-7.778c0.685-2.468,1.355-4.806,2.026-6.965
								c1.319-4.321,2.57-7.942,3.54-10.49c0.489-1.272,0.885-2.278,1.175-2.965c0.294-0.688,0.452-1.054,0.452-1.054
								L118.509,737.33z"/>
						</g>
						<g>
							<path fill="#E6E6E6" d="M101.902,748.417c0,0-52.63-26.801-93.995-16.533"/>
							<path fill="#E6E6E6" d="M101.677,748.863c0,0-0.396-0.047-1.138-0.137c-0.739-0.092-1.809-0.251-3.155-0.465
								c-2.692-0.434-6.453-1.161-10.854-2.18c-2.206-0.499-4.565-1.087-7.045-1.729c-2.484-0.63-5.073-1.345-7.715-2.194
								c-2.644-0.84-5.326-1.881-8.08-2.869c-2.748-1.014-5.579-1.921-8.441-2.718c-2.868-0.767-5.752-1.477-8.613-2.073
								c-2.862-0.578-5.687-1.154-8.44-1.569c-1.377-0.217-2.733-0.427-4.066-0.566c-1.333-0.164-2.639-0.32-3.912-0.423
								c-1.274-0.115-2.518-0.24-3.72-0.282c-1.202-0.048-2.372-0.156-3.488-0.143c-1.122-0.014-2.197-0.025-3.219-0.038
								c-1.023,0.029-1.994,0.059-2.906,0.084c-0.917,0.008-1.766,0.097-2.556,0.154c-0.792,0.056-1.521,0.107-2.178,0.153
								c-2.624,0.317-4.123,0.5-4.123,0.5l-0.241-0.972c0,0,1.468-0.461,4.036-1.268c1.304-0.322,2.886-0.792,4.734-1.152
								c0.926-0.183,1.912-0.378,2.951-0.583c1.048-0.156,2.149-0.321,3.299-0.494c1.153-0.188,2.359-0.262,3.609-0.4
								c1.251-0.146,2.546-0.213,3.88-0.293c1.336-0.104,2.707-0.13,4.11-0.146c1.406-0.041,2.838-0.018,4.297,0.014
								c2.919,0.047,5.934,0.208,8.983,0.511c3.051,0.29,6.136,0.692,9.215,1.158c3.071,0.49,6.157,0.95,9.182,1.487
								c3.034,0.508,5.989,1.15,8.788,1.979c2.79,0.852,5.424,1.87,7.855,2.99c2.444,1.087,4.697,2.251,6.735,3.403
								c4.081,2.299,7.274,4.618,9.419,6.382c1.068,0.895,1.887,1.624,2.427,2.155c0.545,0.521,0.82,0.827,0.82,0.827
								L101.677,748.863z"/>
						</g>
						<g>
							<path fill="#E6E6E6" d="M101.119,747.057c0,0-3.107,58.976-32.683,89.665"/>
							<path fill="#E6E6E6" d="M101.618,747.085c0,0,0.127,0.391,0.307,1.124c0.189,0.733,0.413,1.808,0.652,3.18
								c0.455,2.739,0.867,6.664,0.816,11.349c-0.02,2.342-0.138,4.875-0.419,7.535c-0.246,2.666-0.681,5.456-1.338,8.298
								c-0.682,2.837-1.602,5.719-2.68,8.6c-1.047,2.888-2.192,5.79-3.302,8.695c-1.137,2.896-2.331,5.771-3.604,8.559
								c-1.263,2.792-2.631,5.483-4.05,8.034c-0.703,1.279-1.399,2.531-2.138,3.728c-0.714,1.209-1.423,2.383-2.181,3.487
								c-0.736,1.115-1.442,2.202-2.194,3.214c-0.746,1.014-1.412,2.021-2.152,2.926c-0.724,0.908-1.417,1.78-2.077,2.609
								c-0.697,0.797-1.358,1.553-1.98,2.263c-1.236,1.421-2.434,2.557-3.365,3.523c-1.983,1.821-3.116,2.861-3.116,2.861
								l-0.72-0.693c0,0,0.907-1.208,2.494-3.32c0.369-0.547,0.777-1.15,1.222-1.811c0.446-0.654,0.946-1.346,1.412-2.136
								c0.479-0.777,0.989-1.604,1.526-2.476c0.501-0.892,1.027-1.828,1.577-2.807c0.57-0.96,1.062-2.026,1.622-3.092
								c0.565-1.062,1.079-2.201,1.614-3.363c0.549-1.153,1.067-2.362,1.591-3.599c0.544-1.226,1.042-2.504,1.542-3.806
								c1.018-2.593,1.931-5.327,2.861-8.095c0.913-2.775,1.741-5.629,2.512-8.494c0.741-2.878,1.371-5.781,1.867-8.67
								c0.521-2.879,0.961-5.722,1.556-8.431c0.584-2.713,1.261-5.312,1.957-7.779c0.685-2.467,1.355-4.805,2.026-6.964
								c1.319-4.321,2.569-7.942,3.54-10.49c0.488-1.271,0.885-2.277,1.175-2.964c0.294-0.688,0.452-1.054,0.452-1.054
								L101.618,747.085z"/>
						</g>
					</g>
					
						<line fill="none" stroke="#E6E6E6" stroke-width="31" stroke-miterlimit="10" x1="202.958" y1="691.988" x2="89.445" y2="757.524"/>
				</g>
			</g>
			<g>
				
					<line fill="none" stroke="#8C6239" stroke-width="30" stroke-linecap="round" stroke-miterlimit="10" x1="945.704" y1="263.55" x2="760.928" y2="370.23"/>
				<g>
					<polygon fill="#B3B3B3" points="992.809,238.81 844.219,253.589 906.866,288.549 					"/>
					<polygon fill="#999999" points="992.755,238.726 905.665,360.02 906.714,288.283 					"/>
				</g>
			</g>
		</g>
	</g>
</g>
</svg>
